<svg xmlns="http://www.w3.org/2000/svg" width="800.000000pt" height="800.000000pt" viewBox="0 0 800.000000 800.000000" preserveAspectRatio="xMidYMid meet"><g transform="translate(0.000000,800.000000) scale(0.100000,-0.100000)" fill="#000000" stroke="none"><path d="M2805 7213 c-462 -13 -708 -36 -905 -84 -263 -65 -453 -162 -619 -315 -213 -197 -329 -397 -406 -699 -75 -294 -86 -516 -91 -1800 -4 -947 -3 -1038 11 -1012 9 15 13 33 9 39 -4 6 -3 8 4 4 6 -3 14 3 17 15 7 19 7 20 21 2 13 -16 13 -15 4 9 -7 21 -6 27 3 25 7 -1 11 4 9 11 -1 8 2 11 9 7 8 -5 8 -10 0 -18 -6 -6 -11 -15 -11 -21 0 -5 11 6 25 25 14 19 24 42 21 51 -5 21 10 33 20 17 5 -8 3 -9 -6 -4 -9 5 -11 4 -6 -3 9 -15 8 -16 30 10 16 18 16 20 2 15 -10 -4 -15 -3 -11 3 3 6 14 10 23 10 15 0 15 2 2 10 -11 7 -11 10 -2 10 8 0 10 5 6 13 -4 6 -4 9 1 5 4 -4 13 -2 21 5 44 39 65 63 64 74 0 5 5 9 10 9 6 1 11 2 13 4 4 3 40 10 67 12 25 2 40 14 40 32 0 6 -6 2 -13 -9 -11 -14 -16 -15 -22 -5 -6 9 -4 11 5 5 10 -6 12 -4 7 7 -4 12 0 15 18 13 13 -1 26 4 29 12 4 8 11 11 18 7 7 -4 10 -4 6 1 -8 8 33 45 50 45 10 0 24 24 27 45 0 6 7 9 13 7 7 -1 20 11 30 28 9 16 24 30 33 30 8 0 25 14 37 30 13 17 29 30 36 30 8 0 21 12 31 26 14 22 22 25 48 20 18 -4 38 -7 45 -8 6 -1 12 -2 13 -2 0 -1 3 -167 6 -371 3 -203 7 -372 9 -374 2 -2 4 331 4 740 0 995 13 1223 80 1461 65 233 161 401 324 564 220 221 483 338 856 382 127 15 268 17 1135 17 880 0 1007 -2 1140 -18 376 -43 636 -157 850 -372 245 -245 361 -527 396 -965 5 -74 13 -441 16 -815 6 -712 -5 -1210 -32 -1406 -34 -262 -110 -470 -236 -649 -105 -149 -294 -313 -455 -393 -132 -66 -344 -124 -542 -147 -79 -10 -619 -26 -1052 -32 -169 -2 -171 -2 -60 -7 78 -4 115 -10 115 -18 0 -6 3 -15 7 -19 4 -3 5 3 3 15 -2 14 0 21 7 19 17 -6 18 -36 2 -49 -11 -9 -11 -15 -3 -25 6 -8 8 -14 4 -14 -4 0 -3 -6 2 -12 5 -7 9 -34 8 -60 0 -27 3 -46 9 -45 6 1 10 -30 10 -80 0 -48 4 -81 10 -80 6 1 10 -74 11 -202 0 -186 2 -204 17 -207 10 -1 21 3 25 8 3 6 2 8 -4 5 -5 -3 -10 0 -10 8 0 8 5 11 11 8 6 -4 5 0 -2 9 -9 12 -10 18 -2 23 8 5 8 10 0 20 -8 10 -8 15 0 20 8 5 8 10 0 20 -8 10 -8 15 0 20 6 4 7 12 2 18 -10 14 -10 27 1 44 4 6 4 14 -1 17 -4 2 -8 41 -7 85 1 53 -3 78 -10 74 -5 -3 -4 0 2 7 7 8 15 11 18 8 3 -3 7 -58 8 -122 1 -72 5 -116 12 -116 5 0 4 -4 -3 -9 -8 -4 -14 -12 -14 -16 0 -4 6 -12 14 -16 7 -5 8 -9 2 -9 -6 0 -11 -7 -11 -15 0 -8 5 -15 11 -15 6 0 5 -4 -2 -9 -17 -11 -17 -21 0 -32 7 -5 8 -9 3 -9 -6 0 -11 -10 -12 -21 l-2 -22 567 6 c312 3 646 11 742 16 604 36 963 171 1235 463 202 218 322 500 370 868 33 259 37 441 42 1675 5 1211 -1 1642 -28 1930 -48 525 -191 841 -499 1107 -99 85 -146 116 -260 171 -283 135 -512 175 -1155 197 -247 8 -2201 11 -2470 3z m-1238 -3208 c0 -8 -3 -13 -5 -10 -3 3 -12 -1 -21 -7 -10 -8 -9 -4 3 10 23 26 23 26 23 7z m-322 -265 c-3 -5 -11 -10 -16 -10 -6 0 -7 5 -4 10 3 6 11 10 16 10 6 0 7 -4 4 -10z m-353 -315 c-8 -16 -9 -16 -15 -1 -4 10 -3 15 3 11 6 -3 10 -1 10 6 0 7 3 10 6 6 3 -3 2 -13 -4 -22z m3308 -1876 c0 -13 4 -18 12 -13 7 5 8 3 2 -7 -12 -20 -14 -38 -3 -45 5 -3 9 -21 9 -40 0 -19 4 -33 9 -29 5 3 13 1 16 -5 4 -6 1 -9 -6 -8 -7 2 -14 -7 -15 -19 -1 -13 -3 -24 -4 -25 -5 -6 -5 -140 0 -143 3 -2 6 27 5 66 -1 43 3 69 10 69 6 0 9 -16 7 -41 -4 -33 -2 -40 9 -33 11 6 12 5 3 -7 -6 -8 -10 -26 -9 -42 1 -15 -5 -33 -13 -40 -10 -7 -13 -8 -9 -1 4 7 1 17 -6 22 -9 8 -13 35 -12 82 1 42 -4 75 -10 80 -7 6 -11 28 -10 50 1 23 -2 43 -7 46 -4 3 -5 11 -1 17 11 18 12 38 2 31 -5 -3 -6 -10 -3 -16 5 -7 2 -8 -5 -4 -9 6 -9 12 2 24 8 10 13 25 12 35 -2 9 1 17 6 17 5 0 9 -9 9 -21z m35 -459 c-1 -39 3 -74 7 -76 5 -3 5 -11 1 -17 -11 -17 -11 -30 -1 -44 5 -6 4 -14 -2 -18 -8 -5 -8 -10 0 -20 8 -10 8 -15 0 -20 -8 -5 -8 -10 0 -20 7 -9 7 -15 1 -19 -5 -4 -8 -15 -6 -26 2 -11 1 -22 -3 -24 -4 -2 -7 78 -7 179 0 101 2 182 5 180 4 -2 6 -36 5 -75z m50 -39 c3 -5 2 -12 -3 -15 -5 -3 -9 1 -9 9 0 17 3 19 12 6z"></path><path d="M4188 1466 c5 -6 8 -28 7 -49 -1 -21 1 -40 5 -42 3 -2 5 20 5 49 0 36 -4 53 -12 53 -8 0 -9 -5 -5 -11z"></path><path d="M3090 5934 c-256 -13 -422 -48 -570 -121 -79 -39 -110 -62 -186 -138 -106 -104 -160 -190 -203 -320 -69 -206 -81 -424 -79 -1335 2 -360 4 -547 5 -415 3 243 6 282 23 256 4 -8 15 -11 25 -8 9 4 13 12 9 18 -4 8 -3 9 4 5 6 -4 8 -14 5 -23 -5 -13 -2 -15 11 -10 12 5 16 3 13 -5 -2 -7 -9 -12 -14 -11 -5 1 -9 -9 -9 -22 0 -17 5 -22 17 -20 10 2 23 -2 29 -10 6 -7 19 -12 28 -11 19 3 23 40 5 42 -7 1 -15 3 -18 4 -3 1 -9 3 -14 4 -20 2 -21 14 -1 19 11 3 18 2 15 -3 -6 -10 43 -23 57 -14 7 4 8 3 4 -4 -4 -7 -2 -13 3 -13 6 -1 16 -2 21 -3 6 0 10 -4 10 -8 0 -5 0 -11 0 -14 0 -4 -7 -1 -15 6 -8 7 -15 9 -15 4 0 -5 -5 -2 -11 6 -9 13 -10 12 -5 -2 3 -10 1 -20 -5 -23 -15 -10 0 -24 21 -20 10 2 24 -3 31 -11 9 -12 15 -12 27 -2 13 11 15 10 9 -5 -4 -10 -3 -16 2 -12 5 3 12 1 16 -5 4 -6 10 -8 15 -5 4 3 13 -2 20 -9 6 -8 20 -13 30 -11 10 2 24 -3 31 -11 9 -12 15 -12 27 -2 13 11 15 10 9 -4 -7 -19 8 -34 18 -18 3 6 17 -2 31 -18 14 -15 23 -22 20 -15 -4 6 -2 14 4 18 9 6 14 -8 11 -28 -1 -5 3 -6 8 -3 5 3 14 -1 21 -9 10 -12 16 -13 28 -3 13 11 15 10 9 -4 -3 -10 -3 -17 1 -17 4 1 10 0 15 -1 4 -1 13 -3 20 -4 6 -1 11 -8 9 -16 -2 -8 0 -12 4 -7 4 4 16 0 26 -10 10 -9 18 -13 18 -8 0 4 8 1 17 -6 10 -8 14 -9 10 -2 -4 6 -3 14 3 18 5 3 11 1 11 -4 1 -6 2 -15 3 -21 0 -5 5 -10 9 -9 5 0 15 -8 23 -18 7 -10 14 -13 14 -8 0 6 5 3 11 -5 9 -13 10 -12 5 2 -3 10 -1 20 4 23 6 4 11 0 11 -7 1 -7 2 -20 3 -28 0 -8 8 -15 16 -15 8 -1 14 -7 12 -14 -1 -7 2 -10 8 -6 8 5 8 11 0 20 -7 8 -7 15 -1 19 12 8 25 -30 15 -45 -4 -7 -3 -9 3 -6 5 3 27 -24 48 -61 119 -202 343 -406 548 -497 37 -17 67 -34 67 -38 0 -5 -5 -5 -12 -1 -7 4 -8 3 -4 -5 6 -9 11 -9 23 0 17 15 33 -3 28 -32 -2 -10 3 -23 11 -29 7 -7 11 -16 8 -21 -3 -5 0 -8 8 -7 7 2 12 -3 10 -10 -1 -8 1 -11 6 -8 11 6 10 46 -1 64 -5 7 -12 10 -17 7 -5 -3 -11 -1 -14 4 -13 21 17 22 38 2 12 -12 25 -19 28 -16 2 3 5 -2 5 -10 0 -8 -4 -12 -8 -10 -4 3 -6 -3 -4 -12 1 -10 -2 -23 -7 -30 -5 -7 -5 -14 2 -18 6 -3 8 -11 4 -16 -3 -5 -2 -8 3 -7 4 2 8 0 8 -3 0 -4 8 -16 18 -26 9 -11 14 -23 10 -27 -5 -4 -3 -6 2 -4 6 2 11 -2 13 -7 2 -6 10 -17 18 -26 8 -9 11 -19 7 -24 -5 -4 -3 -5 3 -2 6 4 10 20 9 36 -1 17 3 32 9 34 17 7 14 -56 -3 -77 -8 -10 -10 -16 -5 -14 5 2 10 -1 12 -7 2 -5 10 -17 18 -26 8 -9 11 -19 7 -23 -5 -4 -1 -6 7 -4 10 2 15 -4 14 -19 -1 -12 1 -21 5 -20 3 1 7 -3 9 -8 2 -6 10 -17 18 -26 8 -9 11 -19 7 -23 -5 -4 -1 -6 7 -4 10 2 15 -4 14 -19 -1 -12 4 -21 10 -20 6 1 10 -8 10 -20 -1 -12 4 -21 10 -20 6 1 10 -8 10 -20 -1 -12 4 -21 10 -20 6 1 10 -8 10 -20 -1 -12 3 -21 9 -20 6 1 11 -7 12 -19 0 -11 5 -27 11 -35 6 -8 10 -22 9 -31 -2 -10 2 -16 8 -15 7 1 11 -8 11 -20 -1 -12 2 -21 6 -20 5 1 8 -2 9 -8 1 -6 -134 -12 -376 -16 -208 -3 27 -4 522 -3 634 1 924 5 980 13 276 41 450 122 590 273 159 171 225 384 244 778 13 253 6 1785 -8 1925 -46 462 -229 725 -584 841 -203 65 -226 67 -1272 69 -517 1 -969 0 -1005 -1z m2325 -411 c143 -74 201 -245 132 -385 -89 -181 -322 -221 -463 -80 -108 109 -114 282 -14 395 34 39 84 74 128 88 47 15 173 5 217 -18z m-1173 -327 c444 -94 792 -398 934 -817 117 -346 69 -754 -124 -1053 -351 -543 -1041 -730 -1611 -436 -514 266 -775 853 -625 1411 114 427 461 770 887 878 48 12 116 26 150 31 88 13 299 5 389 -14z m-2072 -1391 c0 4 6 2 13 -4 8 -6 16 -9 19 -6 2 3 5 -1 5 -9 0 -17 -19 -15 -41 3 -9 7 -16 10 -16 7 0 -4 -5 -4 -10 -1 -6 4 -8 11 -4 16 4 6 11 6 20 -2 8 -6 14 -8 14 -4z m149 -32 c-6 -7 -16 -10 -22 -6 -6 3 -7 1 -3 -6 4 -6 13 -8 19 -4 7 4 6 -1 -2 -10 -12 -15 -16 -16 -30 -3 -9 7 -24 12 -34 11 -15 -3 -16 -1 -6 11 8 10 15 11 24 4 9 -7 16 -6 24 3 6 8 17 14 26 14 11 0 12 -4 4 -14z m51 -15 c0 -13 -18 -18 -23 -6 -3 7 -4 3 -4 -9 1 -18 4 -20 16 -10 12 10 13 9 6 -2 -6 -10 -4 -12 5 -6 8 5 11 4 6 -3 -4 -7 1 -10 14 -7 11 2 18 1 16 -4 -3 -4 6 -7 19 -7 13 0 21 4 19 8 -3 5 -9 6 -14 3 -5 -3 -11 -1 -15 5 -4 6 -10 8 -15 5 -4 -3 -14 3 -21 12 -12 14 -11 15 10 8 18 -5 22 -4 16 5 -5 9 -4 11 4 6 6 -4 9 -12 6 -17 -6 -8 16 -14 38 -10 5 1 6 -3 3 -8 -3 -5 5 -12 18 -15 25 -6 29 -27 9 -47 -7 -7 -10 -3 -7 16 2 25 1 26 -15 11 -16 -14 -20 -15 -30 -2 -7 8 -21 13 -31 11 -10 -2 -24 3 -30 11 -7 7 -16 12 -20 9 -10 -6 -20 7 -25 35 -3 16 1 19 21 18 13 -1 24 -6 24 -10z m171 -84 c17 -8 37 -13 45 -10 8 3 12 1 9 -4 -3 -5 17 -21 44 -35 36 -18 49 -30 46 -43 -2 -13 3 -18 19 -18 13 0 23 6 23 13 0 9 -4 10 -14 2 -7 -6 -13 -9 -13 -5 0 3 0 9 0 14 0 4 3 7 8 7 4 0 12 4 19 8 8 5 11 1 8 -13 -2 -13 1 -20 11 -20 8 0 12 -4 9 -10 -3 -5 1 -10 10 -10 19 0 105 -57 105 -69 0 -5 -7 -15 -17 -22 -14 -12 -16 -12 -11 1 3 8 1 23 -4 33 -9 17 -11 17 -28 2 -16 -15 -18 -15 -24 0 -3 10 -11 13 -18 9 -7 -4 -10 -4 -6 1 11 12 -11 47 -25 38 -22 -14 -35 -11 -58 13 -12 13 -26 21 -30 18 -4 -2 -13 5 -19 16 -8 16 -15 19 -24 11 -14 -11 -32 4 -53 43 -13 23 -44 31 -36 9 5 -12 7 -12 14 -1 6 9 9 9 9 1 0 -16 -17 -26 -25 -13 -8 14 -15 50 -9 50 3 0 19 -7 35 -16z m1085 -927 c3 -21 1 -21 -20 2 -17 19 -17 19 0 17 9 -2 18 -10 20 -19z m70 -19 c4 -6 3 -8 -3 -5 -6 4 -14 0 -17 -9 -3 -8 -2 -12 4 -9 6 4 17 0 25 -9 10 -10 11 -16 3 -18 -6 -2 -12 -12 -14 -21 -1 -9 2 -15 7 -11 5 3 7 10 4 15 -4 5 -1 9 4 9 6 0 11 -5 11 -11 0 -5 5 -7 10 -4 6 4 7 11 4 17 -4 7 -2 8 5 4 8 -6 9 -12 2 -20 -15 -18 -1 -28 18 -14 9 7 6 1 -5 -12 -12 -14 -20 -33 -19 -43 2 -9 -1 -15 -6 -11 -5 3 -7 9 -4 13 2 5 -7 18 -20 31 -13 13 -22 26 -20 30 3 4 -4 15 -15 25 -15 14 -17 21 -9 32 6 7 8 13 3 13 -5 0 -2 5 6 10 19 12 17 12 26 -2z m94 -169 c0 -5 6 -7 13 -3 6 4 3 -3 -8 -16 l-20 -24 30 18 c17 10 25 13 18 6 -6 -7 -9 -20 -5 -29 5 -14 3 -14 -10 -3 -13 10 -18 10 -24 1 -5 -8 -3 -9 6 -4 9 6 11 4 5 -5 -6 -9 -4 -11 5 -5 9 6 11 4 5 -6 -5 -8 1 -6 13 4 20 19 26 7 9 -20 -5 -8 0 -9 15 -5 14 3 19 2 14 -6 -4 -7 -1 -12 6 -12 10 0 10 -2 -1 -9 -17 -11 -23 -39 -11 -46 5 -3 7 3 5 14 -3 14 2 19 15 18 15 -1 17 -4 7 -16 -9 -12 -9 -13 1 -7 7 4 12 1 12 -9 0 -9 5 -13 10 -10 6 4 10 3 9 -2 -4 -23 2 -43 11 -38 6 4 10 3 9 -2 -4 -26 2 -44 14 -37 7 5 6 0 -3 -11 -8 -10 -10 -16 -5 -13 6 3 17 -1 25 -10 13 -14 12 -15 -3 -9 -9 3 -19 1 -23 -5 -4 -7 -3 -8 4 -4 7 4 10 -1 7 -14 -2 -11 0 -18 6 -15 5 4 7 11 4 16 -4 5 -3 9 2 9 4 0 19 -27 33 -59 14 -33 29 -57 35 -53 5 3 3 -2 -5 -12 -16 -21 -23 -49 -9 -40 5 3 7 9 4 14 -3 4 1 10 8 13 8 3 12 -6 13 -23 1 -18 -4 -27 -13 -26 -15 2 -41 26 -28 26 4 0 0 9 -10 20 -10 11 -15 20 -10 20 4 0 1 7 -6 17 -8 9 -14 24 -14 33 0 9 -6 24 -14 33 -7 10 -10 17 -6 17 5 0 0 9 -10 20 -10 11 -14 20 -10 20 4 0 0 9 -10 20 -10 11 -14 20 -10 20 4 0 0 9 -10 20 -10 11 -14 20 -10 20 5 0 -4 14 -20 30 -16 17 -25 30 -20 30 4 0 0 9 -10 20 -10 11 -14 20 -10 20 5 0 -4 14 -20 30 -16 17 -25 30 -21 30 5 0 3 6 -3 14 -8 10 -9 16 -1 21 6 3 8 11 5 16 -4 5 -1 9 4 9 6 0 11 -5 11 -11z m255 -368 c3 -5 2 -12 -3 -15 -5 -3 -9 1 -9 9 0 17 3 19 12 6z m5 -143 c0 -4 -9 -8 -21 -8 -11 0 -18 4 -15 8 3 5 12 9 21 9 8 0 15 -4 15 -9z"></path><path d="M3878 4770 c-312 -53 -569 -295 -643 -605 -20 -81 -19 -284 0 -360 77 -300 290 -516 585 -591 99 -25 287 -25 380 0 84 23 193 70 250 109 424 288 471 894 97 1244 -178 166 -431 243 -669 203z"></path><path d="M2436 3688 c3 -5 10 -6 15 -3 13 9 11 12 -6 12 -8 0 -12 -4 -9 -9z"></path><path d="M2567 3636 c17 -30 26 -36 38 -26 10 8 17 5 29 -12 10 -14 16 -17 16 -8 0 10 5 8 16 -6 14 -18 15 -18 4 4 -6 12 -15 20 -19 17 -5 -2 -14 2 -21 9 -6 8 -20 13 -32 11 -13 -3 -18 0 -15 9 3 7 -1 13 -9 13 -7 0 -10 -5 -7 -11z"></path><path d="M2696 3549 c4 -8 30 -6 38 2 3 3 -5 5 -19 5 -13 0 -22 -3 -19 -7z"></path><path d="M2772 3532 c2 -8 7 -13 12 -12 5 1 13 -4 18 -12 8 -11 9 -11 6 0 -2 8 -7 13 -12 12 -5 -1 -13 4 -18 12 -8 11 -9 11 -6 0z"></path><path d="M3671 2684 c6 -7 16 -11 21 -8 11 7 3 17 -18 20 -12 2 -13 -1 -3 -12z"></path><path d="M3711 2624 c6 -7 16 -11 21 -8 11 7 3 17 -18 20 -12 2 -13 -1 -3 -12z"></path><path d="M3826 2451 c-4 -5 -2 -12 3 -15 5 -4 12 -2 15 3 4 5 2 12 -3 15 -5 4 -12 2 -15 -3z"></path><path d="M3870 2383 c0 -6 5 -15 10 -18 6 -4 8 -10 5 -15 -3 -4 2 -13 10 -20 8 -7 13 -16 10 -20 -3 -5 -1 -11 4 -14 11 -7 9 14 -4 34 -5 8 -10 17 -10 20 -1 12 -24 44 -25 33z"></path><path d="M3956 2210 c6 -8 10 -23 9 -32 -2 -9 3 -22 11 -29 8 -6 12 -15 9 -19 -3 -5 -1 -11 3 -14 13 -8 8 40 -6 56 -6 8 -10 17 -7 20 3 3 -3 11 -12 19 -16 12 -17 12 -7 -1z"></path><path d="M1543 3928 c-2 -16 1 -17 13 -8 18 15 18 27 1 27 -7 0 -14 -9 -14 -19z"></path><path d="M1435 3899 c-4 -6 -4 -13 -1 -16 3 -4 6 -1 6 6 0 7 5 9 12 5 7 -4 8 -3 4 4 -9 15 -13 15 -21 1z"></path><path d="M2079 3836 c-4 -5 -6 -36 -2 -32 4 3 11 2 18 -4 8 -6 11 -2 11 14 0 12 -6 23 -13 23 -7 0 -13 -1 -14 -1z"></path><path d="M2063 3130 c0 -36 2 -50 4 -32 2 17 2 47 0 65 -2 17 -4 3 -4 -33z"></path><path d="M1613 3040 c0 -30 2 -43 4 -27 2 15 2 39 0 55 -2 15 -4 2 -4 -28z"></path><path d="M2072 2940 c0 -19 2 -27 5 -17 2 9 2 25 0 35 -3 9 -5 1 -5 -18z"></path><path d="M1622 2885 c0 -16 2 -22 5 -12 2 9 2 23 0 30 -3 6 -5 -1 -5 -18z"></path><path d="M2081 2844 c0 -11 3 -14 6 -6 3 7 2 16 -1 19 -3 4 -6 -2 -5 -13z"></path><path d="M1631 2794 c0 -11 3 -14 6 -6 3 7 2 16 -1 19 -3 4 -6 -2 -5 -13z"></path><path d="M2091 2784 c0 -11 3 -14 6 -6 3 7 2 16 -1 19 -3 4 -6 -2 -5 -13z"></path><path d="M1641 2714 c0 -11 3 -14 6 -6 3 7 2 16 -1 19 -3 4 -6 -2 -5 -13z"></path><path d="M2200 2460 c6 -11 13 -20 16 -20 2 0 0 9 -6 20 -6 11 -13 20 -16 20 -2 0 0 -9 6 -20z"></path><path d="M2240 2396 c0 -2 8 -10 18 -17 15 -13 16 -12 3 4 -13 16 -21 21 -21 13z"></path><path d="M2320 2305 c30 -30 57 -55 59 -55 3 0 -19 25 -49 55 -30 30 -57 55 -59 55 -3 0 19 -25 49 -55z"></path><path d="M2390 2246 c0 -2 8 -10 18 -17 15 -13 16 -12 3 4 -13 16 -21 21 -21 13z"></path><path d="M2828 2063 c7 -3 16 -2 19 1 4 3 -2 6 -13 5 -11 0 -14 -3 -6 -6z"></path><path d="M2903 2053 c9 -2 23 -2 30 0 6 3 -1 5 -18 5 -16 0 -22 -2 -12 -5z"></path><path d="M3023 2043 c15 -2 37 -2 50 0 12 2 0 4 -28 4 -27 0 -38 -2 -22 -4z"></path><path d="M2848 1603 c6 -2 18 -2 25 0 6 3 1 5 -13 5 -14 0 -19 -2 -12 -5z"></path><path d="M2958 1593 c12 -2 32 -2 45 0 12 2 2 4 -23 4 -25 0 -35 -2 -22 -4z"></path><path d="M3167 1583 c18 -2 50 -2 70 0 21 2 7 4 -32 4 -38 0 -55 -2 -38 -4z"></path></g></svg>