<svg xmlns="http://www.w3.org/2000/svg" width="100.000000pt" height="100.000000pt" viewBox="0 0 100.000000 100.000000" preserveAspectRatio="xMidYMid meet"><g transform="translate(0.000000,100.000000) scale(0.100000,-0.100000)" fill="#000000" stroke="none"><path d="M180 991 c-71 -15 -120 -53 -156 -121 -17 -31 -19 -64 -22 -299 l-3 -263 28 20 c16 11 37 22 48 24 45 7 50 23 56 193 5 141 9 168 29 209 46 97 125 120 380 114 148 -3 170 -6 213 -27 93 -45 117 -116 117 -341 0 -229 -23 -293 -123 -345 l-55 -29 25 -31 c14 -16 32 -45 40 -63 13 -31 16 -32 51 -26 75 14 130 53 165 119 21 39 22 51 22 375 0 324 -1 336 -22 375 -24 46 -54 75 -103 101 -32 17 -63 19 -345 21 -171 1 -326 -2 -345 -6z"></path><path d="M300 788 c-49 -14 -76 -42 -89 -93 -15 -60 -15 -282 1 -291 6 -4 27 -9 47 -11 20 -2 47 -5 59 -8 18 -4 22 -2 16 7 -10 15 -13 28 -21 84 -19 143 132 255 262 195 98 -45 139 -151 96 -246 -19 -42 -82 -105 -105 -105 -8 0 -16 -7 -20 -15 -3 -8 0 -15 7 -15 7 0 28 -18 47 -40 39 -45 78 -52 130 -25 55 28 64 62 68 245 6 243 -11 294 -103 319 -49 13 -347 13 -395 -1z m428 -60 c17 -17 15 -53 -3 -68 -38 -31 -96 27 -65 65 15 18 51 20 68 3z"></path><path d="M439 603 c-65 -40 -76 -128 -23 -184 15 -15 30 -28 33 -27 3 1 14 -2 24 -7 58 -25 147 44 147 113 -1 20 -6 47 -14 60 -31 56 -113 79 -167 45z"></path></g></svg>